<svg version="1.1" id="Layer_1" xmlns="http://www.w3.org/2000/svg" xmlns:xlink="http://www.w3.org/1999/xlink" x="0px" y="0px"
	 width="100%" viewBox="0 0 1024 672" enable-background="new 0 0 1024 672" xml:space="preserve">
<path fill="#000000" opacity="1.000000" stroke="none" 
	d="
M536.000000,541.311523 
	C511.838684,541.313232 488.177307,541.333801 464.516022,541.308533 
	C450.928711,541.294006 442.934967,533.202209 442.902374,519.431213 
	C442.868042,504.934540 442.884796,490.437744 442.913208,475.941040 
	C442.943176,460.661682 450.811035,452.787292 465.984100,452.789551 
	C574.959412,452.805756 683.934692,452.801697 792.910034,452.877930 
	C800.716125,452.883392 808.567749,452.013458 816.334595,453.604523 
	C825.428345,455.467468 831.276794,462.329712 831.318481,471.559631 
	C831.395264,488.555450 831.412170,505.552216 831.314880,522.547791 
	C831.257507,532.579224 823.493164,540.596802 813.435425,541.226257 
	C810.778625,541.392578 808.105164,541.309631 805.439331,541.309692 
	C715.792908,541.312500 626.146423,541.311584 536.000000,541.311523 
M637.157654,513.703857 
	C639.920715,513.901367 641.018005,510.676575 643.603333,510.440521 
	C644.426880,514.618347 643.729065,517.445374 641.362427,518.926697 
	C638.683533,520.603516 635.976990,520.454285 633.453979,518.542664 
	C631.778320,517.272949 630.122620,516.679932 628.120972,517.845520 
	C630.578186,522.636108 634.218506,524.423950 639.705017,523.540283 
	C644.356201,522.791199 648.231689,520.564453 648.530823,515.502441 
	C648.971619,508.044922 648.689331,500.544495 648.707397,493.062347 
	C648.711731,491.253174 647.256042,489.486633 646.110962,490.544708 
	C643.169922,493.262421 641.159485,491.001465 638.830933,490.038788 
	C636.459900,489.058594 634.234619,489.569366 632.121582,490.706024 
	C627.978394,492.934662 625.962158,499.236023 627.491638,505.930634 
	C628.542175,510.528717 631.097229,513.781738 637.157654,513.703857 
M691.362610,493.422272 
	C687.288513,488.292419 685.783081,488.171448 678.212219,492.414154 
	C676.776672,491.572968 675.659546,489.472748 673.543274,490.614105 
	C671.705139,491.605438 672.321655,493.543549 672.300049,495.119995 
	C672.234314,499.934021 672.245544,504.750488 672.324646,509.564362 
	C672.352844,511.278320 671.841553,513.700195 674.652161,513.587830 
	C677.330444,513.480713 676.786560,511.094360 676.887634,509.371002 
	C677.100586,505.738007 676.400757,502.042084 677.448730,498.472687 
	C678.258606,495.714447 679.913940,493.560822 683.098145,493.906525 
	C686.340454,494.258514 687.360168,496.655151 687.360413,499.638092 
	C687.360657,503.290497 687.364014,506.943176 687.410156,510.595184 
	C687.430237,512.183838 687.740723,513.658630 689.789978,513.701477 
	C691.641968,513.740173 692.634766,512.678345 692.567627,510.933502 
	C692.352112,505.334991 693.581970,499.653839 691.362610,493.422272 
M603.770569,494.506744 
	C601.756470,498.220367 601.665100,502.202881 602.451538,506.183777 
	C603.918335,513.608887 612.670349,517.059082 618.913086,512.781860 
	C624.256836,509.120575 625.492920,498.724487 621.223450,493.350250 
	C617.015564,488.053497 609.967224,488.279999 603.770569,494.506744 
M584.661621,505.313660 
	C584.656006,498.656097 584.672241,491.998352 584.629028,485.341034 
	C584.618652,483.743835 585.005188,481.688782 582.570679,481.514313 
	C580.207825,481.345062 580.005249,483.207947 579.999390,484.936432 
	C579.971191,493.258118 579.975708,501.579987 579.996643,509.901703 
	C580.001587,511.860779 580.405151,513.728333 582.860168,513.780151 
	C587.349731,513.874939 591.842896,513.835510 596.333862,513.785583 
	C597.356995,513.774231 598.406189,513.400208 598.471924,512.153320 
	C598.555725,510.564728 597.312561,510.266815 596.111328,510.221375 
	C593.618042,510.126984 591.120544,510.119507 588.624817,510.122314 
	C586.024048,510.125275 584.493225,509.085602 584.661621,505.313660 
M666.596558,512.520142 
	C667.740295,506.114166 666.704712,499.643555 667.165283,493.216492 
	C667.267456,491.790039 667.031006,490.519623 665.228333,490.358856 
	C663.333557,490.189850 662.439941,491.165161 662.435608,492.968689 
	C662.421326,498.924835 662.361938,504.883087 662.502441,510.836212 
	C662.554077,513.022156 663.679077,514.302002 666.596558,512.520142 
M663.504639,484.823242 
	C666.033936,486.174744 667.257263,484.899628 667.434509,482.548584 
	C667.549561,481.022827 666.209595,480.182526 664.779602,480.426575 
	C662.452454,480.823730 661.938293,482.290771 663.504639,484.823242 
z"/>
<path fill="#000000" opacity="1.000000" stroke="none" 
	d="
M353.348999,423.000061 
	C353.348389,446.832611 353.003235,470.171875 353.458557,493.495483 
	C353.805206,511.255188 338.940399,531.941895 315.722595,531.640869 
	C264.235626,530.973206 212.732544,531.226685 161.238998,531.561707 
	C143.077667,531.679871 124.926758,531.675171 106.769402,531.439453 
	C86.882462,531.181335 70.726509,515.460144 70.711159,495.564026 
	C70.626183,385.401215 70.615570,275.238251 70.724014,165.075485 
	C70.745697,143.052490 90.656128,123.025894 112.805237,122.960022 
	C179.469025,122.761757 246.133957,122.795799 312.798004,122.938484 
	C332.769012,122.981239 350.624695,139.256668 353.296600,159.146866 
	C355.413849,174.908417 353.340363,190.783325 354.432892,206.539841 
	C355.366333,220.001892 352.995361,232.224915 345.259369,243.404709 
	C343.042206,246.608948 341.573944,250.331421 339.473785,254.371185 
	C337.792633,252.040024 338.668579,250.193878 338.665222,248.534042 
	C338.613159,222.701752 338.770020,196.868271 338.568390,171.037476 
	C338.489624,160.952026 336.298920,151.462463 327.412720,144.981171 
	C323.102661,141.837570 318.369659,140.219025 312.983124,140.221771 
	C252.651871,140.252655 192.320404,140.300217 131.989716,140.114166 
	C126.516129,140.097290 126.241653,142.612411 126.326546,146.819733 
	C128.162323,237.802612 126.793602,328.796661 127.205055,419.785034 
	C127.239716,427.451263 127.459557,435.127563 127.141739,442.780457 
	C126.953247,447.319275 128.314636,448.814301 133.013931,448.777618 
	C159.844711,448.568268 186.677963,448.674713 213.510376,448.673950 
	C246.342575,448.673004 279.174774,448.684540 312.006989,448.665894 
	C327.789734,448.656952 337.649475,438.866058 337.695984,423.180603 
	C337.727142,412.681061 337.746613,402.181061 337.672913,391.681946 
	C337.655487,389.200317 338.367859,387.532349 340.331177,385.725800 
	C344.680145,381.723969 346.429993,375.894287 349.488861,370.961945 
	C350.338684,369.591644 350.629761,367.814423 353.348694,366.462219 
	C353.348694,385.505646 353.348694,404.002869 353.348999,423.000061 
M337.715759,486.469055 
	C337.715759,476.735962 337.715759,467.002869 337.715759,455.981171 
	C329.411469,462.998901 321.000977,465.919250 311.497070,465.912201 
	C246.381210,465.864014 181.265289,465.873901 116.149399,465.893616 
	C113.172997,465.894501 110.210419,465.251160 107.207619,466.076233 
	C95.646416,469.252960 89.536301,477.301758 87.033348,488.534607 
	C84.004570,502.127289 93.915070,514.599731 107.724495,514.625549 
	C127.042702,514.661621 146.361008,514.649353 165.679276,514.648926 
	C215.473785,514.647766 265.268311,514.646729 315.062805,514.634155 
	C326.857178,514.631226 335.500153,508.281586 337.344025,497.912598 
	C337.948669,494.512512 337.615448,490.945618 337.715759,486.469055 
M110.965088,296.500000 
	C110.959404,246.350281 110.958908,196.200546 110.941277,146.050827 
	C110.939148,139.996521 109.130829,138.755539 103.742142,141.500198 
	C92.547707,147.201935 86.329651,156.302032 86.323387,169.030624 
	C86.276398,264.498444 86.302948,359.966278 86.333488,455.434113 
	C86.333778,456.345490 85.908585,457.422028 87.038795,458.337128 
	C93.391747,453.096405 100.305595,448.987366 108.873543,448.581726 
	C111.663162,448.449646 111.107475,446.233337 111.105774,444.449554 
	C111.059151,395.466370 111.011757,346.483185 110.965088,296.500000 
z"/>
<path fill="#000000" opacity="1.000000" stroke="none" 
	d="
M254.369812,183.133881 
	C254.672821,185.520416 255.058762,187.497314 255.063141,189.475082 
	C255.114380,212.632324 255.130997,235.789719 255.106888,258.947021 
	C255.096268,269.149506 251.001358,273.298859 240.932419,273.310394 
	C217.108719,273.337708 193.284882,273.337036 169.461212,273.292206 
	C160.084564,273.274567 155.719345,268.885468 155.705383,259.500702 
	C155.670181,235.843613 155.675156,212.186401 155.694687,188.529266 
	C155.702362,179.227310 159.884415,175.019363 169.614548,174.946732 
	C186.440170,174.821167 203.267395,174.907211 220.093948,174.906631 
	C227.091110,174.906403 234.091476,174.782013 241.084442,174.954803 
	C246.826157,175.096695 252.085129,176.395157 254.369812,183.133881 
z"/>
<path fill="#000000" opacity="1.000000" stroke="none" 
	d="
M363.207458,236.618988 
	C374.536743,243.686981 385.478790,250.682846 396.617157,257.350708 
	C399.894867,259.312897 399.953186,261.032410 398.269653,264.091644 
	C378.203094,300.555603 358.160889,337.033569 338.319580,373.620270 
	C334.892212,379.940277 329.090912,383.510651 324.026978,387.971313 
	C316.782227,394.352966 309.383942,400.560577 302.035156,406.823639 
	C300.769958,407.901886 299.474640,408.958832 298.106018,409.898590 
	C295.506317,411.683533 292.742706,412.701294 289.738647,410.837799 
	C286.737274,408.975861 286.334137,406.076752 286.875061,402.935699 
	C289.242950,389.185883 291.817749,375.469086 293.977600,361.687073 
	C295.174133,354.051849 298.989777,347.781464 302.658936,341.219635 
	C315.006897,319.136749 326.937622,296.820801 339.072296,274.618286 
	C345.539520,262.785339 352.074982,250.989471 358.642273,239.211777 
	C359.520813,237.636230 359.960907,235.021378 363.207458,236.618988 
M304.524048,365.737030 
	C303.670624,370.784576 302.985443,375.868835 301.894562,380.864532 
	C301.328735,383.455719 302.651794,384.578827 304.443390,385.581726 
	C305.931671,386.414825 307.376465,388.268372 309.301086,386.601410 
	C313.743958,382.753448 318.099792,378.804962 323.010132,374.435211 
	C317.590576,370.950409 312.902771,367.911133 308.184204,364.920410 
	C307.061310,364.208710 305.822449,363.456543 304.524048,365.737030 
z"/>
<path fill="#000000" opacity="1.000000" stroke="none" 
	d="
M503.853363,237.287567 
	C495.942963,238.681686 491.627716,235.297546 487.877960,228.917511 
	C480.712219,216.725327 472.641418,205.064316 464.911652,193.205429 
	C464.037567,191.864410 463.501129,190.207031 461.344452,189.107513 
	C461.344452,203.246719 461.354675,217.022552 461.340027,230.798370 
	C461.333130,237.282242 461.311462,237.283051 454.643616,237.304413 
	C453.477509,237.308151 452.300018,237.195129 451.147278,237.318405 
	C447.137360,237.747253 445.884247,235.787994 445.973663,232.029694 
	C446.349945,216.212906 445.678223,200.388474 446.445770,184.566605 
	C446.735321,178.598419 446.277191,172.586624 446.010468,166.601364 
	C445.827087,162.486649 447.212524,160.841339 451.712769,160.632553 
	C458.180511,160.332504 462.249420,162.105103 465.790131,168.055359 
	C473.856354,181.610718 482.932068,194.565353 491.711304,207.937317 
	C493.512512,206.098572 492.808258,204.185364 492.820221,202.495087 
	C492.905060,190.501190 493.017914,178.504471 492.828979,166.513275 
	C492.761108,162.204056 494.179993,160.620926 498.595642,160.733887 
	C509.559204,161.014313 508.268921,160.103317 508.289948,170.453461 
	C508.331543,190.943848 508.276886,211.434418 508.280212,231.924911 
	C508.280670,234.721481 508.361237,237.500137 503.853363,237.287567 
z"/>
<path fill="#000000" opacity="1.000000" stroke="none" 
	d="
M473.914734,310.165710 
	C461.348022,310.164551 461.348022,310.164551 461.350372,322.265625 
	C461.350555,323.264435 461.365662,324.263489 461.348755,325.262024 
	C461.158325,336.515747 463.026978,335.088928 451.213470,335.363129 
	C447.293884,335.454163 445.889191,334.007019 445.963959,330.147644 
	C446.128357,321.661133 446.004608,313.168976 445.997894,304.679138 
	C445.987366,291.361664 446.075592,278.042908 445.908661,264.727386 
	C445.854309,260.391327 447.031830,258.377533 451.855072,258.621826 
	C459.326965,259.000275 466.832764,258.661011 474.323151,258.732941 
	C490.547607,258.888794 500.363403,268.888885 500.291595,285.102570 
	C500.222046,300.815918 490.670593,310.059814 473.914734,310.165710 
M484.855774,283.596802 
	C484.839722,279.058014 483.237488,275.390259 478.823700,273.592926 
	C473.861145,271.572113 468.662598,272.390533 463.529633,272.730377 
	C462.154694,272.821411 461.424896,273.676239 461.421509,275.039154 
	C461.404236,281.964142 461.413544,288.889252 461.413544,296.064423 
	C465.664917,296.064423 469.140289,296.118591 472.613434,296.053680 
	C481.137115,295.894409 484.197266,292.969086 484.855774,283.596802 
z"/>
<path fill="#000000" opacity="1.000000" stroke="none" 
	d="
M215.000046,298.705139 
	C237.147858,298.706085 258.795715,298.682831 280.443420,298.724457 
	C286.720764,298.736511 290.042725,301.347229 290.313080,306.211639 
	C290.582733,311.063995 287.888214,314.207611 283.005707,314.346985 
	C277.514740,314.503754 272.016357,314.409393 266.521179,314.409729 
	C233.216873,314.411652 199.912567,314.415863 166.608276,314.393463 
	C164.466888,314.391998 162.214249,314.814331 160.238205,313.662140 
	C157.111771,311.839142 155.137436,309.165497 155.908844,305.427765 
	C156.843170,300.900726 159.943039,298.729797 164.543549,298.725159 
	C176.366562,298.713196 188.189560,298.712708 200.012573,298.708313 
	C204.841721,298.706543 209.670883,298.706512 215.000046,298.705139 
z"/>
<path fill="#000000" opacity="1.000000" stroke="none" 
	d="
M630.109619,225.303833 
	C635.723022,226.685715 639.998962,225.628098 644.037781,221.565247 
	C648.010803,217.568588 653.341492,220.203506 658.887451,219.853180 
	C657.833496,226.649643 654.809875,231.248459 649.588928,234.404419 
	C630.984680,245.650360 609.209045,234.243927 607.729126,212.515244 
	C606.692871,197.299911 612.083618,186.310654 623.146851,181.085876 
	C640.173828,173.044617 658.920593,184.636780 659.339661,203.465881 
	C659.535034,212.242218 659.541382,212.413712 650.962769,212.729965 
	C643.320435,213.011688 635.661743,212.830872 628.010742,212.903641 
	C622.075439,212.960083 621.286072,214.368713 624.071167,219.772827 
	C625.334351,222.223663 627.195679,224.051575 630.109619,225.303833 
M631.956482,191.042557 
	C627.745728,191.741745 625.359436,194.539993 623.809326,198.228195 
	C622.882935,200.432144 623.641296,201.872543 626.083923,201.924316 
	C631.205383,202.032852 636.330322,202.021957 641.453369,201.986069 
	C644.463074,201.964996 645.076843,200.326569 644.214783,197.690231 
	C642.777100,193.293396 639.111755,191.099197 631.956482,191.042557 
z"/>
<path fill="#000000" opacity="1.000000" stroke="none" 
	d="
M502.189789,299.652954 
	C504.642517,286.787476 511.442444,279.786987 523.676758,277.241852 
	C532.883850,275.326477 543.501038,279.548584 548.658264,287.233856 
	C552.950989,293.630890 553.745544,300.806763 553.309692,308.276733 
	C553.119080,311.544464 550.828857,311.306763 548.664612,311.312500 
	C540.007385,311.335358 531.350098,311.321564 522.692810,311.321350 
	C520.895386,311.321289 519.098022,311.321320 517.117798,311.321320 
	C516.681641,316.693634 518.703491,320.380554 522.759155,322.554993 
	C526.965210,324.809937 532.279907,325.306030 535.386292,321.775146 
	C540.366272,316.114685 546.064697,317.968506 552.678955,317.926666 
	C551.803040,324.014893 549.240906,328.585175 544.570679,331.779938 
	C535.548218,337.951965 525.664307,338.214752 516.026672,334.022064 
	C506.100739,329.703979 502.603577,320.674927 501.770142,310.526947 
	C501.486633,307.074463 501.942993,303.561218 502.189789,299.652954 
M530.272217,300.595428 
	C531.428467,300.587128 532.587830,300.630066 533.740479,300.561737 
	C538.851746,300.258667 539.844055,298.278168 536.981384,293.984619 
	C534.422974,290.147369 530.718506,288.774994 526.249268,289.348938 
	C521.788452,289.921753 519.342896,292.868164 517.798401,296.783173 
	C516.797363,299.320740 517.704285,300.566833 520.419495,300.563904 
	C523.392761,300.560730 526.366089,300.583435 530.272217,300.595428 
z"/>
<path fill="#000000" opacity="1.000000" stroke="none" 
	d="
M774.625732,302.224243 
	C779.938232,301.378235 784.858093,300.626068 789.789490,299.960083 
	C791.917358,299.672729 794.377380,299.953094 794.734741,296.953827 
	C795.079102,294.063171 794.131775,291.744080 791.386353,290.323273 
	C787.330566,288.224274 782.438049,289.162292 779.175537,292.738190 
	C777.183350,294.921875 766.573059,296.574249 764.332581,294.975433 
	C762.496887,293.665497 763.444092,291.889954 763.978821,290.436462 
	C767.448181,281.006073 775.347595,277.563171 784.333557,276.882568 
	C797.622925,275.876007 810.364075,281.687378 809.441040,299.590515 
	C808.927551,309.550598 809.104797,319.566345 809.438904,329.541351 
	C809.598877,334.316681 807.795105,335.820099 803.376526,335.324921 
	C799.852600,334.930023 795.407410,336.901245 794.298401,331.285004 
	C779.037231,339.023590 768.046997,337.508636 763.438110,327.340424 
	C759.477112,318.601562 762.756836,305.215424 774.625732,302.224243 
M787.287964,323.943939 
	C788.314697,323.404785 789.430664,322.986206 790.352295,322.304901 
	C793.719604,319.815735 795.864014,316.167755 794.330200,312.365387 
	C792.809692,308.595764 788.881287,310.815979 785.918030,311.080170 
	C785.422119,311.124390 784.928467,311.219971 784.440735,311.324646 
	C778.983948,312.495544 776.540771,315.311371 777.187744,319.673859 
	C777.770935,323.606995 780.709351,325.028748 787.287964,323.943939 
z"/>
<path fill="#000000" opacity="1.000000" stroke="none" 
	d="
M176.007446,333.961395 
	C206.627396,333.957275 236.748886,333.953186 266.870392,333.949097 
	C267.702484,333.948975 268.534607,333.941956 269.366638,333.949707 
	C276.397034,334.014984 280.349915,336.979218 280.250946,342.108459 
	C280.151428,347.268280 276.186127,350.303986 269.265747,350.309143 
	C235.150253,350.334503 201.034744,350.321106 166.919235,350.309814 
	C165.591049,350.309387 164.235840,350.338043 162.939682,350.100128 
	C158.675079,349.317322 155.619354,345.691437 155.769470,341.752502 
	C155.924347,337.688019 159.054733,334.393250 163.532349,334.089661 
	C167.509201,333.820038 171.515640,333.987122 176.007446,333.961395 
z"/>
<path fill="#000000" opacity="1.000000" stroke="none" 
	d="
M552.209900,236.630463 
	C541.469910,239.881561 531.537170,239.450272 523.519531,231.410751 
	C514.427490,222.293945 513.309753,210.820435 516.048462,198.902374 
	C519.194946,185.209869 530.225525,177.770248 545.120239,178.709137 
	C557.840759,179.510956 567.425842,189.356201 569.086182,203.325592 
	C570.927856,218.820602 565.172668,230.374023 552.209900,236.630463 
M554.062134,205.275925 
	C553.697021,203.658310 553.472656,201.992828 552.941589,200.431641 
	C550.967285,194.627258 546.786682,191.368042 541.641357,191.477997 
	C536.751282,191.582489 532.728516,195.330750 531.135803,201.269073 
	C529.673401,206.721634 529.937988,212.158478 531.549805,217.505585 
	C533.008362,222.344299 536.675354,225.051880 541.445862,225.437912 
	C545.616150,225.775375 549.310181,223.856705 551.377319,219.953339 
	C553.661499,215.639999 554.985168,211.041428 554.062134,205.275925 
z"/>
<path fill="#000000" opacity="1.000000" stroke="none" 
	d="
M670.208252,336.359192 
	C657.744568,335.164154 648.424866,326.194733 646.664612,314.365540 
	C645.899170,309.221802 645.837524,304.179626 646.647705,299.008240 
	C648.585266,286.640594 658.783325,277.478027 671.876709,276.738098 
	C684.531189,276.023010 696.302429,284.482758 699.021301,296.616943 
	C701.652161,308.358154 700.669189,319.475677 692.011597,328.820648 
	C686.231201,335.059998 678.895508,336.993073 670.208252,336.359192 
M662.650574,315.643402 
	C665.631958,321.675781 669.014587,324.049866 674.006775,323.613708 
	C678.898193,323.186340 683.051514,319.401672 684.288025,313.447418 
	C685.339294,308.385468 685.566589,303.163910 683.785339,298.157959 
	C681.682922,292.249298 678.352234,289.950043 672.631287,290.115784 
	C667.288025,290.270599 664.187561,292.809143 662.422546,298.682373 
	C660.804443,304.066650 660.743835,309.488678 662.650574,315.643402 
z"/>
<path fill="#000000" opacity="1.000000" stroke="none" 
	d="
M753.304565,287.021912 
	C754.334595,289.367828 755.253784,291.371552 755.262878,293.576019 
	C755.315186,306.236298 755.291687,318.896881 755.342102,331.557190 
	C755.351868,333.995117 754.439697,335.367096 751.852417,335.265900 
	C751.686523,335.259430 751.519348,335.274536 751.353271,335.286896 
	C740.784607,336.072205 740.793152,336.072235 740.787476,325.567078 
	C740.783081,317.404236 740.851379,309.239685 740.705994,301.079102 
	C740.582886,294.169098 737.165222,290.243896 731.610596,290.227203 
	C726.049011,290.210480 721.565491,294.630615 721.398926,300.986328 
	C721.145752,310.642456 721.129761,320.312500 721.340454,329.969482 
	C721.432312,334.178162 719.826721,335.760254 715.790588,335.322723 
	C714.638062,335.197784 713.445557,335.185242 712.296875,335.327393 
	C707.962402,335.863861 706.502319,334.129242 706.570618,329.693878 
	C706.806641,314.371185 706.702209,299.042297 706.615845,283.716400 
	C706.596863,280.364410 706.837646,277.985229 711.238220,277.880188 
	C719.780457,277.676300 720.435608,277.804504 721.090759,283.400513 
	C726.921631,278.654358 732.946106,275.297638 740.763611,277.440308 
	C746.222168,278.936371 750.472778,281.642822 753.304565,287.021912 
z"/>
<path fill="#000000" opacity="1.000000" stroke="none" 
	d="
M601.252197,283.259216 
	C610.836853,275.728516 620.969910,274.885223 631.544250,279.635529 
	C637.727234,282.413116 641.357971,287.308716 641.870728,295.065033 
	C635.899109,294.562897 629.825073,298.109802 625.203064,291.132996 
	C622.987122,287.788177 615.907227,288.004059 612.775391,290.574585 
	C609.909424,292.926880 610.637390,297.099518 614.490662,298.432098 
	C618.718628,299.894196 623.156921,300.745270 627.498047,301.883423 
	C638.649109,304.806885 642.477356,309.198822 642.298462,318.836792 
	C642.141541,327.291901 636.391235,334.028076 626.792603,335.773804 
	C618.129211,337.349457 609.481079,337.080170 601.942200,331.429382 
	C597.379333,328.009338 595.463928,324.359100 595.224182,318.092529 
	C600.923645,318.436707 606.929321,314.930817 611.596924,321.807159 
	C613.949280,325.272614 620.136353,325.584595 624.074524,323.602173 
	C626.033813,322.615906 627.285950,321.101807 627.341125,318.950256 
	C627.400452,316.637878 625.787903,315.176056 623.797668,314.620056 
	C619.158508,313.323975 614.427979,312.359131 609.752258,311.189148 
	C595.888428,307.720032 591.739868,294.594116 601.252197,283.259216 
z"/>
<path fill="#000000" opacity="1.000000" stroke="none" 
	d="
M403.482422,250.533722 
	C392.032684,243.692963 380.947876,236.946716 369.783691,230.334488 
	C366.136902,228.174622 364.952393,225.945694 367.601807,221.990128 
	C370.369629,217.857819 372.397705,213.238281 374.945007,208.948013 
	C378.635345,202.732544 383.948425,200.966187 390.202759,204.492294 
	C397.438049,208.571457 404.461304,213.074081 411.298065,217.796158 
	C415.820099,220.919495 417.522125,225.871475 415.904755,231.055817 
	C413.768829,237.902359 409.538422,243.821106 406.018585,250.037064 
	C405.561829,250.843597 404.693146,250.948196 403.482422,250.533722 
z"/>
<path fill="#000000" opacity="1.000000" stroke="none" 
	d="
M209.000122,369.647888 
	C221.495743,369.649017 233.491440,369.624329 245.486938,369.662903 
	C251.441925,369.682037 255.089874,372.716980 255.036987,377.459076 
	C254.984802,382.139343 251.248566,385.340118 245.387863,385.354218 
	C218.564514,385.418732 191.740906,385.433990 164.917526,385.387451 
	C159.184311,385.377502 155.594772,381.983398 155.739044,377.125366 
	C155.880051,372.377594 159.162460,369.665253 165.016037,369.651154 
	C179.510651,369.616302 194.005417,369.644989 209.000122,369.647888 
z"/>
<path fill="#000000" opacity="1.000000" stroke="none" 
	d="
M595.513550,178.274567 
	C596.388489,179.505432 597.361633,179.621155 598.373230,179.719559 
	C604.857910,180.350418 607.080811,183.815979 605.231750,190.072113 
	C604.487976,192.588623 602.514893,192.390747 600.824768,192.189301 
	C595.976013,191.611374 594.840271,193.967285 595.011841,198.301682 
	C595.268127,204.776672 595.243164,211.273911 595.038635,217.752243 
	C594.894836,222.308044 596.516052,224.929916 601.306396,224.421021 
	C604.978333,224.030945 605.341980,225.944595 605.388489,228.859589 
	C605.540833,238.406799 605.348267,238.673294 595.871887,238.359131 
	C585.410767,238.012344 579.908997,232.575256 579.741882,222.133728 
	C579.606201,213.655441 579.628052,205.172195 579.749390,196.693558 
	C579.794373,193.545105 578.722412,191.887848 575.438965,192.284134 
	C570.610535,192.866913 570.516479,189.813965 570.662170,186.358307 
	C570.800842,183.069641 569.971313,179.199005 575.367126,179.757919 
	C580.132263,180.251526 579.752441,177.013657 579.722595,173.939392 
	C579.641541,165.599655 579.630981,166.611572 586.900940,166.538513 
	C594.925415,166.457886 594.916626,166.401840 595.080566,174.413208 
	C595.104309,175.572739 595.251709,176.729736 595.513550,178.274567 
z"/>
<path fill="#000000" opacity="1.000000" stroke="none" 
	d="
M816.896851,296.000000 
	C816.903076,285.173218 817.044617,274.843872 816.849304,264.520905 
	C816.769897,260.324921 817.968262,258.498383 822.504456,258.646057 
	C833.309998,258.997925 832.257629,257.700653 832.272461,268.258942 
	C832.300781,288.412811 832.288940,308.566772 832.270386,328.720673 
	C832.264343,335.268433 832.230896,335.268829 825.501038,335.308441 
	C824.668213,335.313354 823.822388,335.215088 823.004761,335.326813 
	C818.038757,336.005371 816.726501,333.604797 816.829712,328.977722 
	C817.071289,318.156708 816.900574,307.326477 816.896851,296.000000 
z"/>
<path fill="#000000" opacity="1.000000" stroke="none" 
	d="
M581.494141,292.361633 
	C575.996277,294.330353 574.234497,298.323486 574.242249,303.422760 
	C574.255981,312.400696 574.169128,321.380524 574.337524,330.355591 
	C574.405334,333.969086 573.110657,335.309174 569.428040,335.381897 
	C558.907593,335.589508 558.904724,335.723206 558.903992,325.470581 
	C558.902954,311.671082 559.083862,297.868347 558.822937,284.073883 
	C558.730713,279.199554 560.469910,277.419952 565.181213,277.910492 
	C568.851196,278.292603 573.595886,276.380585 573.840698,283.273560 
	C577.946167,279.183258 582.297668,277.008545 587.496826,276.733093 
	C591.148315,276.539642 593.236877,277.941284 593.027771,281.900177 
	C592.940186,283.558197 592.924622,285.229736 593.025696,286.886047 
	C593.259033,290.708893 591.949219,292.457855 587.768250,291.691040 
	C585.900574,291.348480 583.841248,292.051056 581.494141,292.361633 
z"/>
<path fill="#000000" opacity="1.000000" stroke="none" 
	d="
M670.231934,198.888275 
	C678.167969,198.875885 685.632690,198.991409 693.090454,198.814499 
	C696.883972,198.724518 698.727539,200.033676 698.318909,203.988297 
	C698.183350,205.300323 698.200928,206.649658 698.332336,207.963547 
	C698.668762,211.328308 697.231812,212.884933 693.838562,212.856567 
	C686.052368,212.791458 678.265198,212.836899 670.478943,212.774582 
	C667.767273,212.752884 665.089478,212.035522 665.831299,208.615738 
	C666.567627,205.221268 662.591736,199.710876 670.231934,198.888275 
z"/>
<path fill="#000000" opacity="1.000000" stroke="none" 
	d="
M489.441498,401.241699 
	C488.099426,397.701599 487.708832,394.539917 488.525208,391.119629 
	C490.115204,384.458618 493.926056,381.750366 500.438446,383.771332 
	C502.704773,384.474609 505.761353,381.973480 506.828278,384.616516 
	C507.822754,387.080078 507.311981,390.179932 507.334656,393.000732 
	C507.373505,397.831146 507.508728,402.673584 507.234589,407.489960 
	C506.978668,411.986298 503.312622,415.143188 498.324432,415.187897 
	C494.004456,415.226624 490.139313,414.129242 488.877045,408.539551 
	C493.455353,406.939850 500.131287,415.220154 503.330048,405.182312 
	C497.452576,406.785583 492.593811,407.122833 489.441498,401.241699 
M501.020752,400.366455 
	C503.651703,397.547180 503.349213,394.199341 502.258820,391.012756 
	C501.393982,388.485352 499.436432,386.782104 496.437744,387.802704 
	C493.540710,388.788696 491.972443,393.874512 493.439972,397.900726 
	C494.647308,401.213013 496.879364,402.757385 501.020752,400.366455 
z"/>
<path fill="#000000" opacity="1.000000" stroke="none" 
	d="
M696.023193,392.772980 
	C697.224976,392.544220 698.051880,392.430573 698.847839,392.206512 
	C700.290894,391.800385 702.017334,391.469940 701.490112,389.371613 
	C700.964905,387.281281 699.172852,387.145874 697.477478,387.466187 
	C696.563660,387.638855 695.644348,388.224792 694.916870,388.845947 
	C693.546570,390.015930 691.910522,391.089447 690.605591,389.464539 
	C689.141113,387.641083 690.676453,385.944550 692.151428,384.881714 
	C695.167786,382.708252 698.498962,382.247131 702.057861,383.651428 
	C705.265198,384.917023 706.645264,387.517151 706.853516,390.626587 
	C707.130371,394.761322 706.998901,398.925476 706.978271,403.076660 
	C706.972534,404.235016 706.496277,406.218475 705.569275,405.854095 
	C701.878235,404.403320 698.961060,407.685272 695.593323,407.091919 
	C692.227234,406.498901 689.621155,404.667450 689.245972,401.019196 
	C688.771545,396.405365 691.525085,394.022766 696.023193,392.772980 
M698.735657,396.538055 
	C698.102905,396.744202 697.468994,396.946930 696.837585,397.157135 
	C695.296265,397.670227 694.042236,398.517944 694.337646,400.350159 
	C694.581421,401.861786 695.729553,402.627838 697.229248,402.540558 
	C699.240479,402.423584 700.672058,401.283173 701.399109,399.452118 
	C702.102661,397.680084 701.541992,396.520660 698.735657,396.538055 
z"/>
<path fill="#000000" opacity="1.000000" stroke="none" 
	d="
M629.772522,406.613281 
	C622.936340,403.363251 620.563293,396.030975 623.635437,388.659851 
	C625.728760,383.637207 631.079407,381.569855 636.548096,383.670868 
	C641.799255,385.688293 644.162659,391.821411 642.422180,398.914551 
	C640.925293,405.014801 636.816345,407.639954 629.772522,406.613281 
M634.009521,402.514130 
	C637.793579,399.695251 639.331299,393.592957 637.025024,389.883270 
	C635.233948,387.002411 632.476685,386.385284 629.794556,388.269958 
	C626.436462,390.629730 627.040588,394.443451 627.464478,397.846008 
	C627.858826,401.010529 629.826538,402.855225 634.009521,402.514130 
z"/>
<path fill="#000000" opacity="1.000000" stroke="none" 
	d="
M468.781036,404.206421 
	C465.209137,399.547485 465.086121,394.782410 466.633148,389.733582 
	C468.053986,385.096497 471.377869,382.838409 475.921204,382.900421 
	C480.611267,382.964386 484.010864,385.200562 485.471222,390.122833 
	C486.574982,393.843079 486.358368,397.375275 485.124084,400.874756 
	C482.878479,407.241608 475.660004,408.812927 468.781036,404.206421 
M472.266357,388.838562 
	C470.371918,392.156006 469.662750,395.622406 471.209320,399.258606 
	C472.535309,402.376221 474.966125,403.404541 478.060974,402.128632 
	C481.214783,400.828461 482.541870,395.261169 480.772461,391.078461 
	C479.169098,387.288147 476.456024,386.349884 472.266357,388.838562 
z"/>
<path fill="#000000" opacity="1.000000" stroke="none" 
	d="
M767.118896,405.378845 
	C760.566467,407.841431 756.366821,407.088776 753.349915,403.200165 
	C750.192627,399.130585 750.058167,390.871246 753.263428,386.723053 
	C755.565186,383.744232 758.779541,382.451721 762.509949,383.011353 
	C766.141174,383.556122 769.219116,385.097656 770.348816,388.982269 
	C772.050903,394.834930 772.363281,400.470428 767.118896,405.378845 
M759.288391,402.243896 
	C762.829956,403.359406 765.429932,401.984100 766.262451,398.608948 
	C767.174500,394.911682 767.748047,390.712463 763.928467,388.146301 
	C761.218018,386.325256 758.231934,386.974609 756.820557,390.131866 
	C754.961487,394.290222 754.530212,398.514465 759.288391,402.243896 
z"/>
<path fill="#000000" opacity="1.000000" stroke="none" 
	d="
M602.776855,385.685791 
	C604.952271,382.369110 606.537476,383.564362 607.598450,386.197571 
	C609.014465,389.711670 610.205261,393.316559 611.610962,397.209778 
	C616.196472,393.522949 613.537537,385.226746 620.551270,383.273621 
	C621.931885,386.124420 620.712463,387.906860 620.119751,389.727234 
	C618.116455,395.879639 616.108337,402.032440 613.955872,408.133545 
	C612.806213,411.392303 610.947388,414.084106 607.061279,414.503723 
	C605.866760,414.632690 604.637329,414.826996 604.103943,413.425568 
	C603.618713,412.150543 604.103333,411.105011 605.388306,410.619568 
	C609.897461,408.916016 609.497375,405.822815 608.134094,402.110229 
	C606.190796,396.818115 604.563599,391.409912 602.776855,385.685791 
z"/>
<path fill="#000000" opacity="1.000000" stroke="none" 
	d="
M589.510742,386.789612 
	C592.168030,391.112915 591.764648,395.536957 590.982910,399.710358 
	C589.741638,406.336609 581.888123,409.229340 576.002808,405.468872 
	C571.858459,402.820770 571.106506,398.608795 571.430969,394.110992 
	C571.750854,389.675354 572.563293,385.493256 577.541626,383.712799 
	C582.082092,382.088928 585.986267,382.860046 589.510742,386.789612 
M576.285889,397.084686 
	C576.587708,400.589478 578.347290,402.818298 582.003662,402.554565 
	C585.492188,402.302948 586.472900,399.566681 586.827393,396.556122 
	C587.469971,391.098541 585.455078,387.491455 581.703979,387.364990 
	C577.989258,387.239685 576.357239,389.902679 576.285889,397.084686 
z"/>
<path fill="#000000" opacity="1.000000" stroke="none" 
	d="
M795.446411,385.029114 
	C799.012146,384.074768 802.419983,382.981873 805.813660,383.023987 
	C809.615112,383.071136 812.612000,385.393738 812.985840,389.391083 
	C813.417725,394.009216 813.179321,398.693329 813.158875,403.348480 
	C813.152710,404.761047 812.716797,406.023834 810.920715,406.027374 
	C809.091248,406.031006 808.769836,404.727875 808.739807,403.329132 
	C808.668274,400.003265 808.656738,396.675659 808.657654,393.348755 
	C808.658386,390.635773 808.003540,388.015106 804.985168,387.689209 
	C801.672058,387.331512 800.566345,389.978058 799.958923,392.771423 
	C799.241089,396.073090 799.487244,399.383087 799.678833,402.710266 
	C799.763245,404.176086 799.805420,405.924713 797.695984,406.106262 
	C795.358093,406.307526 794.939270,404.574524 794.954529,402.825165 
	C795.005249,397.013428 795.164612,391.202606 795.446411,385.029114 
z"/>
<path fill="#000000" opacity="1.000000" stroke="none" 
	d="
M663.084351,389.223328 
	C663.063293,394.027252 663.079468,398.356537 663.003357,402.684204 
	C662.963623,404.945404 662.311523,406.801758 659.442322,405.934235 
	C658.198975,405.558350 657.184875,405.952515 656.069580,406.285889 
	C649.727661,408.181366 645.561829,405.530273 645.090515,398.956390 
	C644.794006,394.821411 645.054749,390.641144 645.177429,386.484497 
	C645.218689,385.084442 645.778870,383.790863 647.554932,383.936371 
	C649.121704,384.064758 649.247986,385.354828 649.272278,386.527100 
	C649.344666,390.022064 649.264465,393.521576 649.398865,397.013367 
	C649.500244,399.649261 650.230164,402.263580 653.359680,402.463501 
	C656.390198,402.657104 657.847595,400.171570 658.288391,397.692688 
	C658.806396,394.779541 658.437012,391.719940 658.702332,388.746155 
	C658.857788,387.004272 657.665833,384.079651 660.760376,384.077942 
	C663.659363,384.076385 662.762146,386.931091 663.084351,389.223328 
z"/>
<path fill="#000000" opacity="1.000000" stroke="none" 
	d="
M776.695801,405.389465 
	C771.685913,399.026825 774.132996,392.042114 774.009155,385.398224 
	C773.982544,383.972137 775.392273,383.711243 776.644653,383.842987 
	C778.206848,384.007233 778.355591,385.211884 778.371704,386.405853 
	C778.418945,389.891998 778.348389,393.381012 778.459900,396.864563 
	C778.542419,399.441162 778.964844,402.334320 782.201294,402.334473 
	C785.276917,402.334564 786.803467,399.993622 786.902405,396.944397 
	C787.010132,393.626648 786.958618,390.302887 787.109009,386.987762 
	C787.176697,385.496368 787.428467,383.800476 789.541199,383.968140 
	C791.409180,384.116425 791.294800,385.739746 791.305115,387.013672 
	C791.355652,393.252045 791.328064,399.490997 791.328064,406.527649 
	C786.021729,403.944611 781.490784,409.726318 776.695801,405.389465 
z"/>
<path fill="#000000" opacity="1.000000" stroke="none" 
	d="
M540.536926,388.886383 
	C535.966064,387.119629 533.603699,388.503937 533.305298,392.952332 
	C533.083069,396.266357 533.247009,399.604645 533.158691,402.930023 
	C533.117615,404.476074 532.868652,406.042145 530.774902,406.032715 
	C528.929138,406.024384 528.692017,404.620880 528.683228,403.258881 
	C528.642517,396.968567 528.665222,390.677795 528.665222,384.132874 
	C532.152771,384.137115 534.992859,383.772827 537.856079,383.055176 
	C541.786072,382.070251 545.686401,385.257538 546.099670,389.782623 
	C546.506531,394.237701 546.257690,398.755524 546.232300,403.245483 
	C546.224548,404.616058 545.963074,406.013733 544.149963,406.050964 
	C542.051392,406.094086 541.910156,404.515472 541.739014,402.969727 
	C541.231567,398.385559 542.637207,393.667480 540.536926,388.886383 
z"/>
<path fill="#000000" opacity="1.000000" stroke="none" 
	d="
M716.410950,401.446686 
	C718.994141,403.297729 721.124878,402.706451 723.063477,401.076385 
	C724.591736,399.791382 726.115906,399.175323 727.977905,400.266968 
	C727.022888,404.896240 723.595764,407.470642 718.821350,407.202911 
	C713.280579,406.892181 709.611328,402.505402 709.273010,395.787384 
	C708.908997,388.560181 711.736572,384.293091 717.685547,383.091888 
	C722.574890,382.104645 726.246704,384.310059 727.852234,389.262848 
	C726.461304,390.775146 725.107300,390.323944 723.518127,389.394592 
	C717.510376,385.881165 714.171204,387.813934 714.143433,394.748108 
	C714.134033,397.093964 714.259338,399.422760 716.410950,401.446686 
z"/>
<path fill="#000000" opacity="1.000000" stroke="none" 
	d="
M749.050415,389.209167 
	C746.906982,391.170349 745.396973,389.809235 743.658447,388.727600 
	C739.331482,386.035553 735.814331,387.803497 735.237061,392.896759 
	C735.069763,394.372559 735.078491,395.907379 735.277710,397.378418 
	C735.925537,402.162476 739.459045,403.944733 743.504211,401.437836 
	C745.222839,400.372711 746.675415,398.956543 749.111816,400.324280 
	C748.956848,404.053741 746.378418,405.537323 743.296082,406.605957 
	C739.372864,407.966187 736.011719,406.796082 733.277832,404.009796 
	C729.478821,400.138184 729.520935,389.740906 733.151794,385.806549 
	C737.864319,380.700043 745.833191,382.227448 749.050415,389.209167 
z"/>
<path fill="#000000" opacity="1.000000" stroke="none" 
	d="
M460.722046,406.333801 
	C456.767731,406.350281 453.282837,406.267761 449.803619,406.373352 
	C446.804840,406.464325 445.662079,405.082581 445.691071,402.178558 
	C445.768829,394.385193 445.696503,386.590393 445.758820,378.796753 
	C445.771484,377.212952 445.559967,375.114929 447.997528,375.133759 
	C450.401337,375.152283 450.217133,377.234039 450.237183,378.825317 
	C450.314453,384.960297 450.425934,391.100342 450.252411,397.230804 
	C450.155579,400.652618 451.398102,402.147217 454.853821,401.925018 
	C456.998474,401.787109 459.164886,401.864044 461.314758,401.975342 
	C462.698364,402.046967 464.018585,402.471619 463.991730,404.246643 
	C463.963806,406.092804 462.536316,406.177277 460.722046,406.333801 
z"/>
<path fill="#000000" opacity="1.000000" stroke="none" 
	d="
M819.442139,404.527405 
	C817.242798,401.159424 818.030396,397.750214 817.851135,394.472595 
	C817.710144,391.895050 818.410095,389.158142 815.594543,387.290131 
	C814.351013,386.465088 814.334778,384.840820 815.747131,383.968079 
	C816.993103,383.198151 817.786499,382.361176 817.881042,380.882690 
	C817.981140,379.318359 818.835022,378.426300 820.421753,378.404053 
	C822.182922,378.379364 822.080078,379.982391 822.810059,380.976624 
	C825.016418,383.981628 828.356262,386.661377 822.659058,389.414398 
	C824.021606,393.703125 820.406616,399.245453 825.980408,402.492249 
	C826.923035,403.041321 827.236328,404.008270 826.827026,405.084381 
	C826.477173,406.004272 825.630310,406.141022 824.804871,406.230774 
	C822.937012,406.433899 821.137817,406.338562 819.442139,404.527405 
z"/>
<path fill="#000000" opacity="1.000000" stroke="none" 
	d="
M566.668335,401.273376 
	C568.654358,402.207794 571.228394,403.005310 569.647949,405.140686 
	C568.000610,407.366394 565.107483,406.731567 562.956909,405.186371 
	C560.825073,403.654633 561.106018,401.145691 560.874146,398.824036 
	C560.456177,394.638519 562.714783,389.785004 557.740845,386.631165 
	C556.747803,386.001526 557.258423,384.025208 558.568481,383.881287 
	C562.013000,383.502747 559.791687,377.499390 563.806213,378.540039 
	C566.295288,379.185242 564.823669,384.064850 568.751160,384.342651 
	C569.485535,384.394562 569.813477,386.554657 568.585815,387.272369 
	C562.213562,390.997803 565.917969,396.269043 566.668335,401.273376 
z"/>
<path fill="#000000" opacity="1.000000" stroke="none" 
	d="
M678.643066,384.418457 
	C679.411621,387.189087 677.614990,387.573669 675.977966,387.894684 
	C672.355835,388.604950 671.110107,390.902588 671.202087,394.365265 
	C671.281616,397.355835 671.208862,400.353149 671.110535,403.344452 
	C671.064514,404.743378 670.649658,406.018127 668.868835,406.057617 
	C666.997620,406.099091 666.725159,404.754425 666.716125,403.373108 
	C666.679016,397.718231 666.691284,392.062866 666.723450,386.407898 
	C666.729126,385.414429 667.005432,383.816467 667.987000,384.060089 
	C671.520386,384.937164 675.003967,381.574646 678.643066,384.418457 
z"/>
<path fill="#000000" opacity="1.000000" stroke="none" 
	d="
M525.141418,394.023743 
	C525.119812,397.324585 525.161072,400.141968 525.048035,402.953156 
	C524.986877,404.473389 524.682678,406.083130 522.621887,406.012787 
	C520.788025,405.950195 520.685303,404.457458 520.676941,403.125031 
	C520.642639,397.660706 520.642944,392.195709 520.693359,386.731567 
	C520.705566,385.402771 520.848389,383.953186 522.705139,383.914246 
	C524.490662,383.876801 524.884888,385.218140 524.966431,386.588654 
	C525.103821,388.900269 525.090149,391.220886 525.141418,394.023743 
z"/>
<path fill="#000000" opacity="1.000000" stroke="none" 
	d="
M524.880493,378.868408 
	C522.757507,380.843384 521.017517,380.622650 520.083801,378.278839 
	C519.385681,376.526337 520.164062,374.902618 522.182983,374.729187 
	C524.827332,374.502045 525.503784,376.177063 524.880493,378.868408 
z"/>
<path fill="#000000" opacity="1.000000" stroke="none" 
	d="
M631.786499,502.768799 
	C631.933350,499.012604 632.099792,495.553925 635.633545,493.899384 
	C637.626099,492.966461 639.974976,492.871979 641.576477,494.796234 
	C644.042236,497.759003 644.813660,501.159607 643.674500,504.970398 
	C642.801270,507.891296 641.427185,510.221008 638.023376,510.228455 
	C633.379333,510.238586 632.715576,506.571930 631.786499,502.768799 
z"/>
<path fill="#000000" opacity="1.000000" stroke="none" 
	d="
M613.652344,493.481201 
	C619.401917,496.477295 620.946594,504.810913 616.887878,509.151001 
	C614.788757,511.395660 612.335388,511.930847 609.811218,510.014282 
	C606.083679,507.184143 606.289368,503.049347 606.923889,499.109100 
	C607.463379,495.759308 609.387329,493.323395 613.652344,493.481201 
z"/>
</svg>