<svg version="1.1" id="Layer_1" xmlns="http://www.w3.org/2000/svg" xmlns:xlink="http://www.w3.org/1999/xlink" x="0px" y="0px"
	 width="100%" viewBox="0 0 1024 1024" enable-background="new 0 0 1024 1024" xml:space="preserve">
<path fill="#000000" opacity="1.000000" stroke="none" 
	d="
M281.550232,765.534607 
	C259.218597,750.359741 248.816467,729.073364 248.772446,702.921082 
	C248.579697,588.426697 248.350861,473.930328 248.857132,359.437897 
	C249.046494,316.615784 283.910126,285.707153 322.314453,285.703979 
	C325.314301,285.703705 328.329285,285.508026 331.310608,285.742188 
	C336.217072,286.127472 337.684265,283.745239 337.755707,279.196564 
	C337.859833,272.564270 336.893494,265.889313 338.541168,259.293884 
	C341.628418,246.936096 351.624664,239.717239 364.455750,240.722641 
	C375.550537,241.591980 384.507324,251.176590 385.309021,263.244659 
	C385.694153,269.041748 385.958771,274.859680 385.932007,280.666595 
	C385.915558,284.232056 387.012390,285.769043 390.799316,285.747681 
	C411.131012,285.633026 431.464264,285.625122 451.795746,285.760193 
	C456.256073,285.789825 457.712463,283.692352 457.672852,279.672211 
	C457.621948,274.506439 457.631714,269.339081 457.695526,264.173370 
	C457.851624,251.535034 467.066864,241.454376 479.096588,240.704819 
	C492.525879,239.868073 503.119904,248.072372 505.359619,260.786987 
	C506.528412,267.422058 506.081696,274.078400 506.092407,280.723206 
	C506.098267,284.365295 507.387878,285.758179 511.071228,285.739471 
	C531.069702,285.637909 551.069336,285.643585 571.067932,285.741455 
	C575.159119,285.761475 576.647278,284.041931 576.728210,280.046204 
	C576.866089,273.244598 575.920898,266.401306 577.596802,259.641357 
	C580.752014,246.914764 591.393250,239.328659 604.293762,240.754913 
	C615.420532,241.985092 624.993286,252.741730 625.321716,264.537018 
	C625.470093,269.865295 625.523499,275.205536 625.339844,280.530670 
	C625.203552,284.481567 626.885742,285.736237 630.701538,285.751038 
	C640.490112,285.788940 650.334351,284.904816 659.984192,287.677216 
	C672.090393,291.155304 682.612671,297.226776 691.691528,305.936768 
	C694.319336,308.457794 694.792480,310.668518 692.329102,313.651917 
	C687.240051,319.815155 682.316223,326.118835 677.459778,332.468292 
	C675.495056,335.037018 673.550903,336.034058 670.888855,333.586365 
	C658.923096,322.583923 644.141663,323.086334 629.392883,323.373566 
	C626.199036,323.435791 625.491394,325.448364 625.452942,328.003937 
	C625.375183,333.167755 625.517273,338.337219 625.343994,343.496796 
	C624.949219,355.248413 616.215576,365.138306 605.375610,366.286407 
	C591.496277,367.756439 580.912109,360.738434 577.708008,348.148407 
	C576.198914,342.218750 576.743225,336.225433 576.711182,330.254333 
	C576.689026,326.116089 575.188538,324.220886 570.795654,324.250122 
	C551.130737,324.381195 531.463440,324.417877 511.799591,324.222443 
	C507.235352,324.177094 506.108032,326.029114 506.166901,330.171417 
	C506.251648,336.139130 506.713257,342.130463 505.295563,348.075378 
	C502.270447,360.760620 492.016083,367.646057 477.792511,366.307861 
	C466.892334,365.282349 457.892761,354.924225 457.708496,343.128571 
	C457.635620,338.463104 457.596893,333.794434 457.686157,329.129974 
	C457.749695,325.811707 456.446442,324.265289 452.975128,324.276978 
	C432.143036,324.347198 411.310486,324.350220 390.478394,324.282928 
	C387.195557,324.272339 386.081268,325.777924 386.034698,328.833954 
	C385.951080,334.322968 386.160797,339.806915 385.441650,345.298523 
	C383.599091,359.368591 373.834686,367.033417 358.303528,366.323639 
	C347.506378,365.830261 338.139801,355.303528 337.735809,343.047699 
	C337.571167,338.052979 337.666901,333.049072 337.678619,328.049408 
	C337.684326,325.618896 337.011200,323.590027 334.224030,323.480164 
	C321.215179,322.967438 308.561951,323.523438 298.277893,333.356995 
	C289.747742,341.513458 287.378387,351.815155 287.371521,362.908020 
	C287.306885,467.236420 287.305328,571.564941 287.371246,675.893372 
	C287.377686,686.041809 286.784302,696.200500 288.043243,706.348022 
	C290.338684,724.849792 304.494293,737.647217 323.366974,737.661255 
	C397.196808,737.716187 471.026733,737.689575 544.856628,737.691162 
	C575.688538,737.691833 606.521362,737.829285 637.351990,737.625122 
	C652.898132,737.522156 664.982239,731.100525 672.077209,716.672791 
	C674.962585,710.805115 675.510376,704.387085 675.383240,698.141296 
	C674.759521,667.491272 675.163452,636.841919 675.077942,606.193420 
	C675.035217,590.882141 675.441345,575.569824 675.621277,560.257629 
	C675.647034,558.062256 675.827698,556.026184 677.326233,554.174927 
	C688.751770,540.059875 700.109253,525.889709 711.512024,511.756256 
	C711.900879,511.274292 712.545349,510.998657 713.131165,510.583954 
	C715.103821,512.262878 714.275024,514.401550 714.276367,516.237854 
	C714.322266,579.234924 714.332642,642.231934 714.296326,705.229004 
	C714.279724,734.052063 694.023132,762.268433 666.769470,771.825256 
	C656.141541,775.552002 645.334412,777.403564 634.008667,777.389160 
	C530.346985,777.257263 426.685028,777.260803 323.023315,777.364746 
	C308.098724,777.379700 294.411407,773.740845 281.550232,765.534607 
z"/>
<path fill="#000000" opacity="1.000000" stroke="none" 
	d="
M557.456299,521.464905 
	C579.510437,493.228302 601.305298,465.243469 623.191895,437.330536 
	C647.339478,406.533997 671.571411,375.803680 695.765869,345.043945 
	C699.985046,339.679871 700.179504,339.612946 705.477234,344.029968 
	C725.814697,360.986603 746.041870,378.077148 766.505066,394.880341 
	C771.141052,398.687103 768.073242,401.065430 765.893738,403.874146 
	C735.576721,442.944427 705.302063,482.047729 674.896545,521.049072 
	C649.199768,554.010498 623.249573,586.774658 597.630432,619.795898 
	C591.109924,628.200378 582.503845,633.726990 573.822205,639.295349 
	C554.340881,651.790466 534.806824,664.203430 515.305237,676.666931 
	C511.702332,678.969604 507.847992,680.445618 503.531769,679.909424 
	C492.479645,678.536499 487.176880,670.472412 490.359894,658.835571 
	C494.745178,642.803406 499.686951,626.923157 504.423523,610.987610 
	C507.076782,602.061096 510.135498,593.238525 512.374817,584.211182 
	C514.033020,577.526611 517.267456,572.051147 521.544556,566.777893 
	C533.609131,551.903503 545.361755,536.776062 557.456299,521.464905 
z"/>
<path fill="#000000" opacity="1.000000" stroke="none" 
	d="
M713.045654,324.185638 
	C711.982788,321.999084 713.298157,320.733887 714.301819,319.471954 
	C722.379456,309.315491 730.134766,298.873169 738.677856,289.122131 
	C759.544983,265.304504 801.237671,271.736359 814.773132,300.671692 
	C822.368408,316.908569 820.812439,332.263611 809.834290,346.540680 
	C802.734802,355.773499 795.522156,364.920532 788.518738,374.225372 
	C785.861328,377.756104 783.708618,378.714966 779.697510,375.582825 
	C757.671143,358.383484 735.425110,341.465485 713.045654,324.185638 
z"/>
<path fill="#000000" opacity="1.000000" stroke="none" 
	d="
M357.112000,439.685425 
	C413.547577,439.684814 469.499664,439.673279 525.451721,439.695557 
	C535.678711,439.699615 541.689575,445.932831 541.316223,455.968628 
	C540.997498,464.533875 534.238892,470.244873 524.161926,470.258148 
	C492.855591,470.299286 461.549194,470.279846 430.242828,470.280060 
	C405.763916,470.280243 381.284973,470.274811 356.806061,470.271423 
	C352.223938,470.270782 347.811646,469.586945 344.167938,466.530426 
	C339.165009,462.333771 337.497192,455.988983 339.641022,449.826385 
	C341.792999,443.640503 346.906494,439.932251 353.631042,439.697449 
	C354.629120,439.662598 355.629303,439.688354 357.112000,439.685425 
z"/>
<path fill="#000000" opacity="1.000000" stroke="none" 
	d="
M475.702576,546.150696 
	C435.744324,546.183228 396.252533,546.240173 356.760864,546.199890 
	C343.640808,546.186523 335.564392,536.112549 339.640442,525.108459 
	C341.987366,518.772461 347.262512,514.742065 354.101959,514.730347 
	C395.593323,514.659363 437.084930,514.660217 478.576263,514.744202 
	C486.462402,514.760193 492.782104,520.512146 493.325989,527.613708 
	C494.065582,537.270752 489.346954,543.922424 480.613892,545.496948 
	C479.141663,545.762390 477.651154,545.926331 475.702576,546.150696 
z"/>
</svg>